<svg width="1200" height="240" viewBox="0 0 1200 240" fill="none" xmlns="http://www.w3.org/2000/svg">
<rect width="1200" height="240" fill="transparent"/>
<g fill="#E6E6E6">
<path d="M60 40H180L150 70H90V95H160V125H90V170H180V200H60V40Z"/>
<path d="M260 200L350 40H410L500 200H450L390 95L310 200H260Z"/>
<path d="M560 40H720L690 70H590V170H720V200H560V40Z"/>
<path d="M780 40H940L910 70H870V200H840V70H780V40Z"/>
<path d="M1010 40H1040V200H1010V40Z"/>
</g>
<g fill="#FF3C3C">
<path d="M1090 40H1180V200H1090V40ZM1120 70V170H1150V70H1120Z"/>
</g>
</svg>
