<svg xmlns="http://www.w3.org/2000/svg" xmlns:xlink="http://www.w3.org/1999/xlink" width="2000" zoomAndPan="magnify" viewBox="0 0 1500 1499.999933" height="2000" preserveAspectRatio="xMidYMid meet" version="1.0"><defs><g/><clipPath id="f36c357213"><path d="M 693 402.140625 L 886.472656 402.140625 L 886.472656 583 L 693 583 Z M 693 402.140625 " clip-rule="nonzero"/></clipPath><clipPath id="e4573817ac"><path d="M 613.472656 480 L 886.472656 480 L 886.472656 795.890625 L 613.472656 795.890625 Z M 613.472656 480 " clip-rule="nonzero"/></clipPath><clipPath id="902f422ec5"><path d="M 815.609375 597.671875 L 613.472656 480.964844 L 613.472656 556.730469 L 831.546875 682.632812 L 749.992188 729.714844 L 613.472656 650.894531 L 613.472656 717.421875 L 749.992188 796.242188 L 886.515625 717.421875 L 886.515625 638.605469 Z M 815.609375 597.671875 " clip-rule="evenodd"/></clipPath><linearGradient x1="88.799697" gradientTransform="matrix(0.0255471, 0, 0, 0.0255471, 613.473396, 402.141562)" y1="3024.585896" x2="9245.111756" gradientUnits="userSpaceOnUse" y2="16399.162474" id="e209e97b35"><stop stop-opacity="1" stop-color="rgb(100%, 99.995422%, 99.980164%)" offset="0"/><stop stop-opacity="1" stop-color="rgb(100%, 99.899292%, 99.507141%)" offset="0.00390625"/><stop stop-opacity="1" stop-color="rgb(100%, 99.803162%, 99.035645%)" offset="0.0078125"/><stop stop-opacity="1" stop-color="rgb(100%, 99.707031%, 98.562622%)" offset="0.0117188"/><stop stop-opacity="1" stop-color="rgb(100%, 99.610901%, 98.091125%)" offset="0.015625"/><stop stop-opacity="1" stop-color="rgb(100%, 99.513245%, 97.618103%)" offset="0.0195312"/><stop stop-opacity="1" stop-color="rgb(100%, 99.417114%, 97.146606%)" offset="0.0234375"/><stop stop-opacity="1" stop-color="rgb(100%, 99.320984%, 96.673584%)" offset="0.0273438"/><stop stop-opacity="1" stop-color="rgb(100%, 99.224854%, 96.202087%)" offset="0.03125"/><stop stop-opacity="1" stop-color="rgb(100%, 99.128723%, 95.729065%)" offset="0.0351562"/><stop stop-opacity="1" stop-color="rgb(100%, 99.032593%, 95.257568%)" offset="0.0390625"/><stop stop-opacity="1" stop-color="rgb(100%, 98.936462%, 94.784546%)" offset="0.0429688"/><stop stop-opacity="1" stop-color="rgb(100%, 98.840332%, 94.313049%)" offset="0.046875"/><stop stop-opacity="1" stop-color="rgb(100%, 98.744202%, 93.841553%)" offset="0.0507813"/><stop stop-opacity="1" stop-color="rgb(100%, 98.648071%, 93.370056%)" offset="0.0546875"/><stop stop-opacity="1" stop-color="rgb(100%, 98.550415%, 92.897034%)" offset="0.0585938"/><stop stop-opacity="1" stop-color="rgb(100%, 98.454285%, 92.425537%)" offset="0.0625"/><stop stop-opacity="1" stop-color="rgb(100%, 98.358154%, 91.952515%)" offset="0.0664062"/><stop stop-opacity="1" stop-color="rgb(100%, 98.262024%, 91.481018%)" offset="0.0703125"/><stop stop-opacity="1" stop-color="rgb(100%, 98.165894%, 91.007996%)" offset="0.0742188"/><stop stop-opacity="1" stop-color="rgb(100%, 98.069763%, 90.536499%)" offset="0.078125"/><stop stop-opacity="1" stop-color="rgb(100%, 97.973633%, 90.063477%)" offset="0.0820313"/><stop stop-opacity="1" stop-color="rgb(100%, 97.877502%, 89.59198%)" offset="0.0859375"/><stop stop-opacity="1" stop-color="rgb(100%, 97.781372%, 89.118958%)" offset="0.0898438"/><stop stop-opacity="1" stop-color="rgb(100%, 97.685242%, 88.647461%)" offset="0.09375"/><stop stop-opacity="1" stop-color="rgb(100%, 97.587585%, 88.174438%)" offset="0.0976563"/><stop stop-opacity="1" stop-color="rgb(100%, 97.491455%, 87.702942%)" offset="0.101563"/><stop stop-opacity="1" stop-color="rgb(100%, 97.395325%, 87.231445%)" offset="0.105469"/><stop stop-opacity="1" stop-color="rgb(100%, 97.299194%, 86.759949%)" offset="0.109375"/><stop stop-opacity="1" stop-color="rgb(100%, 97.203064%, 86.286926%)" offset="0.113281"/><stop stop-opacity="1" stop-color="rgb(100%, 97.106934%, 85.81543%)" offset="0.117187"/><stop stop-opacity="1" stop-color="rgb(100%, 97.010803%, 85.342407%)" offset="0.121094"/><stop stop-opacity="1" stop-color="rgb(100%, 96.914673%, 84.870911%)" offset="0.125"/><stop stop-opacity="1" stop-color="rgb(100%, 96.818542%, 84.397888%)" offset="0.128906"/><stop stop-opacity="1" stop-color="rgb(100%, 96.722412%, 83.926392%)" offset="0.132812"/><stop stop-opacity="1" stop-color="rgb(100%, 96.626282%, 83.453369%)" offset="0.136719"/><stop stop-opacity="1" stop-color="rgb(100%, 96.530151%, 82.981873%)" offset="0.140625"/><stop stop-opacity="1" stop-color="rgb(100%, 96.432495%, 82.50885%)" offset="0.144531"/><stop stop-opacity="1" stop-color="rgb(100%, 96.336365%, 82.037354%)" offset="0.148438"/><stop stop-opacity="1" stop-color="rgb(100%, 96.240234%, 81.564331%)" offset="0.152344"/><stop stop-opacity="1" stop-color="rgb(100%, 96.144104%, 81.092834%)" offset="0.15625"/><stop stop-opacity="1" stop-color="rgb(100%, 96.047974%, 80.621338%)" offset="0.160156"/><stop stop-opacity="1" stop-color="rgb(100%, 95.951843%, 80.149841%)" offset="0.164063"/><stop stop-opacity="1" stop-color="rgb(100%, 95.855713%, 79.676819%)" offset="0.167969"/><stop stop-opacity="1" stop-color="rgb(100%, 95.759583%, 79.205322%)" offset="0.171875"/><stop stop-opacity="1" stop-color="rgb(100%, 95.663452%, 78.7323%)" offset="0.175781"/><stop stop-opacity="1" stop-color="rgb(100%, 95.567322%, 78.260803%)" offset="0.179688"/><stop stop-opacity="1" stop-color="rgb(100%, 95.469666%, 77.787781%)" offset="0.183594"/><stop stop-opacity="1" stop-color="rgb(100%, 95.373535%, 77.316284%)" offset="0.1875"/><stop stop-opacity="1" stop-color="rgb(100%, 95.277405%, 76.843262%)" offset="0.191406"/><stop stop-opacity="1" stop-color="rgb(100%, 95.181274%, 76.371765%)" offset="0.195313"/><stop stop-opacity="1" stop-color="rgb(100%, 95.085144%, 75.898743%)" offset="0.199219"/><stop stop-opacity="1" stop-color="rgb(100%, 94.989014%, 75.427246%)" offset="0.203125"/><stop stop-opacity="1" stop-color="rgb(100%, 94.892883%, 74.95575%)" offset="0.207031"/><stop stop-opacity="1" stop-color="rgb(100%, 94.796753%, 74.484253%)" offset="0.210938"/><stop stop-opacity="1" stop-color="rgb(100%, 94.700623%, 74.01123%)" offset="0.214844"/><stop stop-opacity="1" stop-color="rgb(100%, 94.604492%, 73.539734%)" offset="0.21875"/><stop stop-opacity="1" stop-color="rgb(100%, 94.508362%, 73.066711%)" offset="0.222656"/><stop stop-opacity="1" stop-color="rgb(100%, 94.412231%, 72.595215%)" offset="0.226563"/><stop stop-opacity="1" stop-color="rgb(100%, 94.314575%, 72.122192%)" offset="0.230469"/><stop stop-opacity="1" stop-color="rgb(100%, 94.218445%, 71.650696%)" offset="0.234375"/><stop stop-opacity="1" stop-color="rgb(100%, 94.122314%, 71.177673%)" offset="0.238281"/><stop stop-opacity="1" stop-color="rgb(100%, 94.026184%, 70.706177%)" offset="0.242188"/><stop stop-opacity="1" stop-color="rgb(100%, 93.930054%, 70.233154%)" offset="0.246094"/><stop stop-opacity="1" stop-color="rgb(100%, 93.833923%, 69.761658%)" offset="0.25"/><stop stop-opacity="1" stop-color="rgb(100%, 93.737793%, 69.288635%)" offset="0.253906"/><stop stop-opacity="1" stop-color="rgb(100%, 93.641663%, 68.817139%)" offset="0.257813"/><stop stop-opacity="1" stop-color="rgb(100%, 93.545532%, 68.345642%)" offset="0.261719"/><stop stop-opacity="1" stop-color="rgb(100%, 93.449402%, 67.874146%)" offset="0.265625"/><stop stop-opacity="1" stop-color="rgb(100%, 93.351746%, 67.401123%)" offset="0.269531"/><stop stop-opacity="1" stop-color="rgb(100%, 93.255615%, 66.929626%)" offset="0.273438"/><stop stop-opacity="1" stop-color="rgb(100%, 93.159485%, 66.456604%)" offset="0.277344"/><stop stop-opacity="1" stop-color="rgb(100%, 93.063354%, 65.985107%)" offset="0.28125"/><stop stop-opacity="1" stop-color="rgb(100%, 92.967224%, 65.512085%)" offset="0.285156"/><stop stop-opacity="1" stop-color="rgb(100%, 92.871094%, 65.040588%)" offset="0.289063"/><stop stop-opacity="1" stop-color="rgb(100%, 92.774963%, 64.567566%)" offset="0.292969"/><stop stop-opacity="1" stop-color="rgb(100%, 92.678833%, 64.096069%)" offset="0.296875"/><stop stop-opacity="1" stop-color="rgb(100%, 92.582703%, 63.623047%)" offset="0.300781"/><stop stop-opacity="1" stop-color="rgb(100%, 92.486572%, 63.15155%)" offset="0.304688"/><stop stop-opacity="1" stop-color="rgb(100%, 92.388916%, 62.678528%)" offset="0.308594"/><stop stop-opacity="1" stop-color="rgb(100%, 92.292786%, 62.207031%)" offset="0.3125"/><stop stop-opacity="1" stop-color="rgb(100%, 92.196655%, 61.735535%)" offset="0.316406"/><stop stop-opacity="1" stop-color="rgb(100%, 92.100525%, 61.264038%)" offset="0.320313"/><stop stop-opacity="1" stop-color="rgb(100%, 92.004395%, 60.791016%)" offset="0.324219"/><stop stop-opacity="1" stop-color="rgb(100%, 91.908264%, 60.319519%)" offset="0.328125"/><stop stop-opacity="1" stop-color="rgb(100%, 91.812134%, 59.846497%)" offset="0.332031"/><stop stop-opacity="1" stop-color="rgb(100%, 91.716003%, 59.375%)" offset="0.335938"/><stop stop-opacity="1" stop-color="rgb(100%, 91.619873%, 58.901978%)" offset="0.339844"/><stop stop-opacity="1" stop-color="rgb(100%, 91.523743%, 58.430481%)" offset="0.34375"/><stop stop-opacity="1" stop-color="rgb(100%, 91.427612%, 57.957458%)" offset="0.347656"/><stop stop-opacity="1" stop-color="rgb(100%, 91.331482%, 57.485962%)" offset="0.351563"/><stop stop-opacity="1" stop-color="rgb(100%, 91.233826%, 57.012939%)" offset="0.355469"/><stop stop-opacity="1" stop-color="rgb(100%, 91.137695%, 56.541443%)" offset="0.359375"/><stop stop-opacity="1" stop-color="rgb(100%, 91.041565%, 56.06842%)" offset="0.363281"/><stop stop-opacity="1" stop-color="rgb(100%, 90.945435%, 55.596924%)" offset="0.367188"/><stop stop-opacity="1" stop-color="rgb(100%, 90.849304%, 55.125427%)" offset="0.371094"/><stop stop-opacity="1" stop-color="rgb(100%, 90.753174%, 54.653931%)" offset="0.375"/><stop stop-opacity="1" stop-color="rgb(100%, 90.657043%, 54.180908%)" offset="0.378906"/><stop stop-opacity="1" stop-color="rgb(100%, 90.560913%, 53.709412%)" offset="0.382813"/><stop stop-opacity="1" stop-color="rgb(100%, 90.464783%, 53.236389%)" offset="0.386719"/><stop stop-opacity="1" stop-color="rgb(100%, 90.368652%, 52.764893%)" offset="0.390625"/><stop stop-opacity="1" stop-color="rgb(100%, 90.270996%, 52.29187%)" offset="0.394531"/><stop stop-opacity="1" stop-color="rgb(100%, 90.174866%, 51.820374%)" offset="0.398438"/><stop stop-opacity="1" stop-color="rgb(100%, 90.078735%, 51.347351%)" offset="0.402344"/><stop stop-opacity="1" stop-color="rgb(100%, 89.982605%, 50.875854%)" offset="0.40625"/><stop stop-opacity="1" stop-color="rgb(100%, 89.886475%, 50.402832%)" offset="0.410156"/><stop stop-opacity="1" stop-color="rgb(100%, 89.790344%, 49.931335%)" offset="0.414063"/><stop stop-opacity="1" stop-color="rgb(100%, 89.694214%, 49.458313%)" offset="0.417969"/><stop stop-opacity="1" stop-color="rgb(100%, 89.598083%, 48.986816%)" offset="0.421875"/><stop stop-opacity="1" stop-color="rgb(100%, 89.501953%, 48.51532%)" offset="0.425781"/><stop stop-opacity="1" stop-color="rgb(100%, 89.405823%, 48.043823%)" offset="0.429688"/><stop stop-opacity="1" stop-color="rgb(100%, 89.309692%, 47.570801%)" offset="0.433594"/><stop stop-opacity="1" stop-color="rgb(100%, 89.213562%, 47.099304%)" offset="0.4375"/><stop stop-opacity="1" stop-color="rgb(100%, 89.115906%, 46.626282%)" offset="0.441406"/><stop stop-opacity="1" stop-color="rgb(100%, 89.019775%, 46.154785%)" offset="0.445313"/><stop stop-opacity="1" stop-color="rgb(100%, 88.923645%, 45.681763%)" offset="0.449219"/><stop stop-opacity="1" stop-color="rgb(100%, 88.827515%, 45.210266%)" offset="0.453125"/><stop stop-opacity="1" stop-color="rgb(100%, 88.731384%, 44.737244%)" offset="0.457031"/><stop stop-opacity="1" stop-color="rgb(100%, 88.635254%, 44.265747%)" offset="0.460938"/><stop stop-opacity="1" stop-color="rgb(100%, 88.539124%, 43.792725%)" offset="0.464844"/><stop stop-opacity="1" stop-color="rgb(100%, 88.442993%, 43.321228%)" offset="0.46875"/><stop stop-opacity="1" stop-color="rgb(100%, 88.346863%, 42.848206%)" offset="0.472656"/><stop stop-opacity="1" stop-color="rgb(100%, 88.250732%, 42.376709%)" offset="0.476563"/><stop stop-opacity="1" stop-color="rgb(100%, 88.153076%, 41.905212%)" offset="0.480469"/><stop stop-opacity="1" stop-color="rgb(100%, 88.056946%, 41.433716%)" offset="0.484375"/><stop stop-opacity="1" stop-color="rgb(100%, 87.960815%, 40.960693%)" offset="0.488281"/><stop stop-opacity="1" stop-color="rgb(100%, 87.864685%, 40.489197%)" offset="0.492188"/><stop stop-opacity="1" stop-color="rgb(100%, 87.768555%, 40.016174%)" offset="0.496094"/><stop stop-opacity="1" stop-color="rgb(100%, 87.672424%, 39.544678%)" offset="0.5"/><stop stop-opacity="1" stop-color="rgb(100%, 87.576294%, 39.071655%)" offset="0.503906"/><stop stop-opacity="1" stop-color="rgb(100%, 87.480164%, 38.600159%)" offset="0.507813"/><stop stop-opacity="1" stop-color="rgb(100%, 87.384033%, 38.127136%)" offset="0.511719"/><stop stop-opacity="1" stop-color="rgb(100%, 87.287903%, 37.65564%)" offset="0.515625"/><stop stop-opacity="1" stop-color="rgb(100%, 87.190247%, 37.182617%)" offset="0.519531"/><stop stop-opacity="1" stop-color="rgb(100%, 87.094116%, 36.711121%)" offset="0.523438"/><stop stop-opacity="1" stop-color="rgb(100%, 86.997986%, 36.238098%)" offset="0.527344"/><stop stop-opacity="1" stop-color="rgb(100%, 86.901855%, 35.766602%)" offset="0.53125"/><stop stop-opacity="1" stop-color="rgb(100%, 86.805725%, 35.295105%)" offset="0.535156"/><stop stop-opacity="1" stop-color="rgb(100%, 86.709595%, 34.823608%)" offset="0.539062"/><stop stop-opacity="1" stop-color="rgb(100%, 86.613464%, 34.350586%)" offset="0.542969"/><stop stop-opacity="1" stop-color="rgb(100%, 86.517334%, 33.879089%)" offset="0.546875"/><stop stop-opacity="1" stop-color="rgb(100%, 86.421204%, 33.406067%)" offset="0.550781"/><stop stop-opacity="1" stop-color="rgb(100%, 86.325073%, 32.93457%)" offset="0.554688"/><stop stop-opacity="1" stop-color="rgb(100%, 86.228943%, 32.461548%)" offset="0.558594"/><stop stop-opacity="1" stop-color="rgb(100%, 86.132812%, 31.990051%)" offset="0.5625"/><stop stop-opacity="1" stop-color="rgb(100%, 86.035156%, 31.517029%)" offset="0.566406"/><stop stop-opacity="1" stop-color="rgb(100%, 85.939026%, 31.045532%)" offset="0.570313"/><stop stop-opacity="1" stop-color="rgb(100%, 85.842896%, 30.57251%)" offset="0.574219"/><stop stop-opacity="1" stop-color="rgb(100%, 85.746765%, 30.101013%)" offset="0.578125"/><stop stop-opacity="1" stop-color="rgb(100%, 85.650635%, 29.627991%)" offset="0.582031"/><stop stop-opacity="1" stop-color="rgb(100%, 85.554504%, 29.156494%)" offset="0.585938"/><stop stop-opacity="1" stop-color="rgb(100%, 85.458374%, 28.684998%)" offset="0.589844"/><stop stop-opacity="1" stop-color="rgb(100%, 85.362244%, 28.213501%)" offset="0.59375"/><stop stop-opacity="1" stop-color="rgb(100%, 85.266113%, 27.740479%)" offset="0.597656"/><stop stop-opacity="1" stop-color="rgb(100%, 85.169983%, 27.268982%)" offset="0.601563"/><stop stop-opacity="1" stop-color="rgb(100%, 85.072327%, 26.795959%)" offset="0.605469"/><stop stop-opacity="1" stop-color="rgb(100%, 84.976196%, 26.324463%)" offset="0.609375"/><stop stop-opacity="1" stop-color="rgb(100%, 84.880066%, 25.85144%)" offset="0.613281"/><stop stop-opacity="1" stop-color="rgb(100%, 84.783936%, 25.379944%)" offset="0.617188"/><stop stop-opacity="1" stop-color="rgb(100%, 84.687805%, 24.906921%)" offset="0.621094"/><stop stop-opacity="1" stop-color="rgb(100%, 84.591675%, 24.435425%)" offset="0.625"/><stop stop-opacity="1" stop-color="rgb(100%, 84.495544%, 23.962402%)" offset="0.628906"/><stop stop-opacity="1" stop-color="rgb(100%, 84.399414%, 23.490906%)" offset="0.632812"/><stop stop-opacity="1" stop-color="rgb(100%, 84.303284%, 23.017883%)" offset="0.636719"/><stop stop-opacity="1" stop-color="rgb(100%, 84.207153%, 22.546387%)" offset="0.640625"/><stop stop-opacity="1" stop-color="rgb(100%, 84.111023%, 22.07489%)" offset="0.644531"/><stop stop-opacity="1" stop-color="rgb(100%, 84.014893%, 21.603394%)" offset="0.648438"/><stop stop-opacity="1" stop-color="rgb(100%, 83.917236%, 21.130371%)" offset="0.652344"/><stop stop-opacity="1" stop-color="rgb(100%, 83.821106%, 20.658875%)" offset="0.65625"/><stop stop-opacity="1" stop-color="rgb(100%, 83.724976%, 20.185852%)" offset="0.660156"/><stop stop-opacity="1" stop-color="rgb(100%, 83.628845%, 19.714355%)" offset="0.664062"/><stop stop-opacity="1" stop-color="rgb(100%, 83.532715%, 19.241333%)" offset="0.667969"/><stop stop-opacity="1" stop-color="rgb(100%, 83.436584%, 18.769836%)" offset="0.671875"/><stop stop-opacity="1" stop-color="rgb(100%, 83.340454%, 18.296814%)" offset="0.675781"/><stop stop-opacity="1" stop-color="rgb(100%, 83.244324%, 17.825317%)" offset="0.679688"/><stop stop-opacity="1" stop-color="rgb(100%, 83.148193%, 17.352295%)" offset="0.683594"/><stop stop-opacity="1" stop-color="rgb(100%, 83.052063%, 16.880798%)" offset="0.6875"/><stop stop-opacity="1" stop-color="rgb(100%, 82.954407%, 16.407776%)" offset="0.691406"/><stop stop-opacity="1" stop-color="rgb(100%, 82.858276%, 15.936279%)" offset="0.695313"/><stop stop-opacity="1" stop-color="rgb(100%, 82.762146%, 15.464783%)" offset="0.699219"/><stop stop-opacity="1" stop-color="rgb(100%, 82.666016%, 14.993286%)" offset="0.703125"/><stop stop-opacity="1" stop-color="rgb(100%, 82.569885%, 14.520264%)" offset="0.707031"/><stop stop-opacity="1" stop-color="rgb(100%, 82.473755%, 14.048767%)" offset="0.710938"/><stop stop-opacity="1" stop-color="rgb(100%, 82.377625%, 13.575745%)" offset="0.714844"/><stop stop-opacity="1" stop-color="rgb(100%, 82.281494%, 13.104248%)" offset="0.71875"/><stop stop-opacity="1" stop-color="rgb(100%, 82.185364%, 12.631226%)" offset="0.722656"/><stop stop-opacity="1" stop-color="rgb(100%, 82.089233%, 12.159729%)" offset="0.726562"/><stop stop-opacity="1" stop-color="rgb(100%, 81.993103%, 11.686707%)" offset="0.730469"/><stop stop-opacity="1" stop-color="rgb(100%, 81.896973%, 11.21521%)" offset="0.734375"/><stop stop-opacity="1" stop-color="rgb(100%, 81.799316%, 10.742188%)" offset="0.738281"/><stop stop-opacity="1" stop-color="rgb(100%, 81.703186%, 10.270691%)" offset="0.742188"/><stop stop-opacity="1" stop-color="rgb(100%, 81.607056%, 9.797668%)" offset="0.746094"/><stop stop-opacity="1" stop-color="rgb(100%, 81.510925%, 9.326172%)" offset="0.75"/><stop stop-opacity="1" stop-color="rgb(100%, 81.414795%, 8.854675%)" offset="0.753906"/><stop stop-opacity="1" stop-color="rgb(100%, 81.318665%, 8.383179%)" offset="0.757812"/><stop stop-opacity="1" stop-color="rgb(100%, 81.222534%, 7.910156%)" offset="0.761719"/><stop stop-opacity="1" stop-color="rgb(100%, 81.126404%, 7.43866%)" offset="0.765625"/><stop stop-opacity="1" stop-color="rgb(100%, 81.030273%, 6.965637%)" offset="0.769531"/><stop stop-opacity="1" stop-color="rgb(100%, 80.934143%, 6.494141%)" offset="0.773438"/><stop stop-opacity="1" stop-color="rgb(100%, 80.836487%, 6.021118%)" offset="0.777344"/><stop stop-opacity="1" stop-color="rgb(100%, 80.740356%, 5.549622%)" offset="0.78125"/><stop stop-opacity="1" stop-color="rgb(100%, 80.644226%, 5.076599%)" offset="0.785156"/><stop stop-opacity="1" stop-color="rgb(100%, 80.548096%, 4.605103%)" offset="0.789063"/><stop stop-opacity="1" stop-color="rgb(100%, 80.451965%, 4.13208%)" offset="0.792969"/><stop stop-opacity="1" stop-color="rgb(100%, 80.355835%, 3.660583%)" offset="0.796875"/><stop stop-opacity="1" stop-color="rgb(100%, 80.259705%, 3.187561%)" offset="0.800781"/><stop stop-opacity="1" stop-color="rgb(100%, 80.163574%, 2.716064%)" offset="0.804688"/><stop stop-opacity="1" stop-color="rgb(100%, 80.067444%, 2.244568%)" offset="0.808594"/><stop stop-opacity="1" stop-color="rgb(100%, 79.971313%, 1.773071%)" offset="0.8125"/><stop stop-opacity="1" stop-color="rgb(100%, 79.873657%, 1.300049%)" offset="0.816406"/><stop stop-opacity="1" stop-color="rgb(100%, 79.777527%, 0.828552%)" offset="0.820313"/><stop stop-opacity="1" stop-color="rgb(100%, 79.693604%, 0.413513%)" offset="0.824219"/><stop stop-opacity="1" stop-color="rgb(100%, 79.60968%, 0%)" offset="0.828125"/><stop stop-opacity="1" stop-color="rgb(100%, 79.60968%, 0%)" offset="0.84375"/><stop stop-opacity="1" stop-color="rgb(100%, 79.60968%, 0%)" offset="0.875"/><stop stop-opacity="1" stop-color="rgb(100%, 79.60968%, 0%)" offset="1"/></linearGradient><clipPath id="5aebd045c9"><path d="M 812 480 L 886.472656 480 L 886.472656 514 L 812 514 Z M 812 480 " clip-rule="nonzero"/></clipPath></defs><rect x="-150" width="1800" fill="#ffffff" y="-149.999993" height="1799.99992" fill-opacity="1"/><rect x="-150" width="1800" fill="#66042d" y="-149.999993" height="1799.99992" fill-opacity="1"/><g clip-path="url(#f36c357213)"><path fill="#ffcb00" d="M 775.652344 544.972656 L 841.265625 582.855469 L 886.515625 556.730469 L 886.515625 480.964844 L 749.992188 402.140625 L 693.375 434.828125 L 829.898438 513.652344 Z M 775.652344 544.972656 " fill-opacity="1" fill-rule="evenodd"/></g><g clip-path="url(#e4573817ac)"><g clip-path="url(#902f422ec5)"><path fill="url(#e209e97b35)" d="M 613.472656 480.964844 L 613.472656 795.890625 L 886.472656 795.890625 L 886.472656 480.964844 Z M 613.472656 480.964844 " fill-rule="nonzero"/></g></g><g clip-path="url(#5aebd045c9)"><path fill="#66042d" d="M 829.898438 513.652344 L 886.515625 480.964844 L 812.535156 503.628906 Z M 829.898438 513.652344 " fill-opacity="1" fill-rule="evenodd"/></g><g fill="#ffffff" fill-opacity="1"><g transform="translate(293.937664, 955.795146)"><g><path d="M 127.375 -36.625 C 131.632812 -32.570312 133.765625 -27.507812 133.765625 -21.4375 C 133.765625 -15.65625 131.632812 -10.640625 127.375 -6.390625 C 123.320312 -2.128906 118.253906 0 112.171875 0 L 12.15625 0 L 12.15625 -73.71875 L 112.171875 -73.71875 C 118.253906 -73.71875 123.320312 -71.59375 127.375 -67.34375 C 131.632812 -63.082031 133.765625 -58.0625 133.765625 -52.28125 C 133.765625 -46.300781 131.632812 -41.238281 127.375 -37.09375 C 127.375 -36.988281 127.347656 -36.9375 127.296875 -36.9375 C 127.242188 -36.9375 127.21875 -36.9375 127.21875 -36.9375 C 127.21875 -36.832031 127.242188 -36.78125 127.296875 -36.78125 C 127.347656 -36.78125 127.375 -36.726562 127.375 -36.625 Z M 24.46875 -61.40625 L 24.46875 -43.015625 L 112.171875 -43.015625 C 114.703125 -43.015625 116.882812 -43.925781 118.71875 -45.75 C 120.539062 -47.476562 121.453125 -49.65625 121.453125 -52.28125 C 121.453125 -54.71875 120.539062 -56.847656 118.71875 -58.671875 C 116.882812 -60.492188 114.703125 -61.40625 112.171875 -61.40625 Z M 118.71875 -15.046875 C 120.539062 -16.867188 121.453125 -19 121.453125 -21.4375 C 121.453125 -24.164062 120.539062 -26.34375 118.71875 -27.96875 C 116.882812 -29.789062 114.703125 -30.703125 112.171875 -30.703125 L 24.46875 -30.703125 L 24.46875 -12.3125 L 112.171875 -12.3125 C 114.703125 -12.3125 116.882812 -13.222656 118.71875 -15.046875 Z M 118.71875 -15.046875 "/></g></g></g><g fill="#ffffff" fill-opacity="1"><g transform="translate(439.850166, 955.795146)"><g><path d="M 127.375 -67.484375 C 131.632812 -63.128906 133.765625 -58.0625 133.765625 -52.28125 L 133.765625 0 L 121.453125 0 L 121.453125 -30.703125 L 24.46875 -30.703125 L 24.46875 0 L 12.15625 0 L 12.15625 -52.28125 C 12.15625 -58.0625 14.285156 -63.128906 18.546875 -67.484375 C 22.597656 -71.640625 27.664062 -73.71875 33.75 -73.71875 L 112.328125 -73.71875 C 118.304688 -73.71875 123.320312 -71.640625 127.375 -67.484375 Z M 121.453125 -43.015625 L 121.453125 -52.28125 C 121.453125 -54.71875 120.539062 -56.847656 118.71875 -58.671875 C 116.882812 -60.492188 114.703125 -61.40625 112.171875 -61.40625 L 31.921875 -61.40625 C 30.203125 -61.101562 28.628906 -60.242188 27.203125 -58.828125 C 25.378906 -57.003906 24.46875 -54.820312 24.46875 -52.28125 L 24.46875 -43.015625 Z M 121.453125 -43.015625 "/></g></g></g><g fill="#ffffff" fill-opacity="1"><g transform="translate(585.762668, 955.795146)"><g><path d="M 127.375 -36.484375 C 131.632812 -32.429688 133.765625 -27.414062 133.765625 -21.4375 C 133.765625 -15.550781 131.632812 -10.484375 127.375 -6.234375 C 123.320312 -2.078125 118.253906 0 112.171875 0 L 15.203125 0 L 15.203125 -12.15625 L 112.171875 -12.15625 C 114.703125 -12.15625 116.882812 -13.066406 118.71875 -14.890625 C 120.539062 -16.710938 121.453125 -18.894531 121.453125 -21.4375 C 121.453125 -23.96875 120.539062 -26.144531 118.71875 -27.96875 C 116.789062 -29.6875 114.609375 -30.546875 112.171875 -30.546875 L 33.59375 -30.546875 C 27.71875 -30.546875 22.648438 -32.675781 18.390625 -36.9375 C 14.234375 -41.09375 12.15625 -46.160156 12.15625 -52.140625 C 12.15625 -58.015625 14.234375 -63.03125 18.390625 -67.1875 C 22.648438 -71.4375 27.71875 -73.5625 33.59375 -73.5625 L 130.71875 -73.5625 L 130.71875 -61.25 L 33.59375 -61.25 C 31.0625 -61.25 28.882812 -60.335938 27.0625 -58.515625 C 25.332031 -56.796875 24.46875 -54.671875 24.46875 -52.140625 C 24.46875 -49.503906 25.332031 -47.320312 27.0625 -45.59375 C 28.882812 -43.769531 31.0625 -42.859375 33.59375 -42.859375 L 112.171875 -42.859375 C 118.253906 -42.859375 123.320312 -40.734375 127.375 -36.484375 Z M 127.375 -36.484375 "/></g></g></g><g fill="#ffffff" fill-opacity="1"><g transform="translate(731.675148, 955.795146)"><g><path d="M 133.765625 -73.71875 L 12.15625 -73.71875 L 12.15625 -61.40625 L 67.03125 -61.40625 L 67.03125 0 L 79.34375 0 L 79.34375 -61.40625 L 133.765625 -61.40625 Z M 133.765625 -73.71875 "/></g></g></g><g fill="#ffffff" fill-opacity="1"><g transform="translate(877.587673, 955.795146)"><g><path d="M 24.3125 -73.71875 L 24.46875 0 L 12.15625 0 L 12.15625 -73.71875 Z M 24.3125 -73.71875 "/></g></g></g><g fill="#ffffff" fill-opacity="1"><g transform="translate(914.217782, 955.795146)"><g><path d="M 127.375 -67.484375 C 131.632812 -63.234375 133.765625 -58.164062 133.765625 -52.28125 L 133.765625 -21.4375 C 133.765625 -15.757812 131.632812 -10.691406 127.375 -6.234375 C 123.320312 -2.078125 118.304688 0 112.328125 0 L 33.75 0 C 27.664062 0 22.597656 -2.078125 18.546875 -6.234375 C 14.285156 -10.484375 12.15625 -15.550781 12.15625 -21.4375 L 12.15625 -52.59375 C 12.15625 -58.164062 14.285156 -63.128906 18.546875 -67.484375 C 22.597656 -71.640625 27.613281 -73.71875 33.59375 -73.71875 L 112.171875 -73.71875 C 118.148438 -73.71875 123.21875 -71.640625 127.375 -67.484375 Z M 118.71875 -15.046875 C 120.539062 -16.867188 121.453125 -19 121.453125 -21.4375 L 121.453125 -52.28125 C 121.453125 -54.820312 120.539062 -57.003906 118.71875 -58.828125 C 116.882812 -60.648438 114.703125 -61.5625 112.171875 -61.5625 L 33.75 -61.5625 C 31.207031 -61.5625 29.023438 -60.648438 27.203125 -58.828125 C 25.378906 -57.003906 24.46875 -54.820312 24.46875 -52.28125 L 24.46875 -21.4375 C 24.46875 -18.894531 25.378906 -16.710938 27.203125 -14.890625 C 28.628906 -13.472656 30.203125 -12.613281 31.921875 -12.3125 L 112.171875 -12.3125 C 114.703125 -12.3125 116.882812 -13.222656 118.71875 -15.046875 Z M 118.71875 -15.046875 "/></g></g></g><g fill="#ffffff" fill-opacity="1"><g transform="translate(1060.130307, 955.795146)"><g><path d="M 121.453125 0 L 121.453125 -52.4375 C 121.453125 -54.875 120.539062 -57.003906 118.71875 -58.828125 C 116.882812 -60.648438 114.703125 -61.5625 112.171875 -61.5625 L 31.921875 -61.5625 C 30.203125 -61.257812 28.628906 -60.394531 27.203125 -58.96875 C 25.378906 -57.144531 24.46875 -54.96875 24.46875 -52.4375 L 24.46875 0 L 12.15625 0 L 12.15625 -52.4375 C 12.15625 -58.21875 14.285156 -63.285156 18.546875 -67.640625 C 22.597656 -71.796875 27.664062 -73.875 33.75 -73.875 L 112.328125 -73.875 C 118.304688 -73.875 123.320312 -71.796875 127.375 -67.640625 C 131.632812 -63.285156 133.765625 -58.21875 133.765625 -52.4375 L 133.765625 0 Z M 121.453125 0 "/></g></g></g><g fill="#ffffff" fill-opacity="1"><g transform="translate(273.001036, 1063.028792)"><g><path d="M 46.078125 -13.25 C 47.617188 -11.78125 48.390625 -9.945312 48.390625 -7.75 L 48.390625 0 L 43.9375 0 L 43.9375 -7.75 C 43.9375 -8.738281 43.601562 -9.523438 42.9375 -10.109375 C 42.28125 -10.773438 41.492188 -11.109375 40.578125 -11.109375 L 8.859375 -11.109375 L 8.859375 0 L 4.40625 0 L 4.40625 -26.671875 L 8.796875 -26.671875 L 8.859375 -18.921875 L 8.859375 -15.5625 L 36.296875 -15.5625 L 42.125 -26.671875 L 47.0625 -26.671875 L 41.234375 -15.5625 C 43.140625 -15.414062 44.753906 -14.644531 46.078125 -13.25 Z M 46.078125 -13.25 "/></g></g></g><g fill="#ffffff" fill-opacity="1"><g transform="translate(350.47911, 1063.028792)"><g><path d="M 46.078125 -24.40625 C 47.617188 -22.875 48.390625 -21.046875 48.390625 -18.921875 L 48.390625 -7.75 C 48.390625 -5.695312 47.617188 -3.863281 46.078125 -2.25 C 44.609375 -0.75 42.796875 0 40.640625 0 L 12.203125 0 C 10.003906 0 8.171875 -0.75 6.703125 -2.25 C 5.171875 -3.789062 4.40625 -5.625 4.40625 -7.75 L 4.40625 -19.03125 C 4.40625 -21.039062 5.171875 -22.832031 6.703125 -24.40625 C 8.171875 -25.914062 9.988281 -26.671875 12.15625 -26.671875 L 40.578125 -26.671875 C 42.742188 -26.671875 44.578125 -25.914062 46.078125 -24.40625 Z M 42.9375 -5.4375 C 43.601562 -6.101562 43.9375 -6.875 43.9375 -7.75 L 43.9375 -18.921875 C 43.9375 -19.835938 43.601562 -20.625 42.9375 -21.28125 C 42.28125 -21.9375 41.492188 -22.265625 40.578125 -22.265625 L 12.203125 -22.265625 C 11.285156 -22.265625 10.5 -21.9375 9.84375 -21.28125 C 9.1875 -20.625 8.859375 -19.835938 8.859375 -18.921875 L 8.859375 -7.75 C 8.859375 -6.832031 9.1875 -6.046875 9.84375 -5.390625 C 10.351562 -4.878906 10.921875 -4.566406 11.546875 -4.453125 L 40.578125 -4.453125 C 41.492188 -4.453125 42.28125 -4.78125 42.9375 -5.4375 Z M 42.9375 -5.4375 "/></g></g></g><g fill="#ffffff" fill-opacity="1"><g transform="translate(427.957184, 1063.028792)"><g><path d="M 57.078125 -24.46875 C 58.617188 -22.894531 59.390625 -21.0625 59.390625 -18.96875 L 59.390625 0 L 54.921875 0 L 54.921875 -18.96875 C 54.921875 -19.851562 54.59375 -20.625 53.9375 -21.28125 C 53.28125 -21.9375 52.492188 -22.265625 51.578125 -22.265625 L 34.09375 -22.265625 L 34.140625 0 L 29.6875 0 L 29.6875 -22.265625 L 11.546875 -22.265625 C 10.921875 -22.160156 10.351562 -21.847656 9.84375 -21.328125 C 9.1875 -20.671875 8.859375 -19.882812 8.859375 -18.96875 L 8.859375 0 L 4.40625 0 L 4.40625 -18.96875 C 4.40625 -21.0625 5.171875 -22.894531 6.703125 -24.46875 C 8.171875 -25.96875 10.003906 -26.71875 12.203125 -26.71875 L 51.625 -26.71875 C 53.789062 -26.71875 55.609375 -25.96875 57.078125 -24.46875 Z M 57.078125 -24.46875 "/></g></g></g><g fill="#ffffff" fill-opacity="1"><g transform="translate(516.432137, 1063.028792)"><g><path d="M 46.078125 -13.25 C 47.617188 -11.78125 48.390625 -9.945312 48.390625 -7.75 C 48.390625 -5.695312 47.617188 -3.863281 46.078125 -2.25 C 44.609375 -0.75 42.796875 0 40.640625 0 L 12.203125 0 C 10.003906 0 8.171875 -0.75 6.703125 -2.25 C 5.171875 -3.789062 4.40625 -5.625 4.40625 -7.75 L 4.40625 -19.03125 C 4.40625 -21.039062 5.171875 -22.832031 6.703125 -24.40625 C 8.171875 -25.914062 9.988281 -26.671875 12.15625 -26.671875 L 40.578125 -26.671875 C 42.742188 -26.671875 44.578125 -25.914062 46.078125 -24.40625 C 47.617188 -22.875 48.390625 -21.046875 48.390625 -18.921875 L 43.9375 -18.921875 C 43.9375 -19.835938 43.601562 -20.625 42.9375 -21.28125 C 42.28125 -21.9375 41.492188 -22.265625 40.578125 -22.265625 L 12.203125 -22.265625 C 11.285156 -22.265625 10.5 -21.9375 9.84375 -21.28125 C 9.1875 -20.625 8.859375 -19.835938 8.859375 -18.921875 L 8.859375 -15.5625 L 40.578125 -15.5625 C 42.773438 -15.5625 44.609375 -14.789062 46.078125 -13.25 Z M 42.9375 -5.4375 C 43.601562 -6.101562 43.9375 -6.875 43.9375 -7.75 C 43.9375 -8.738281 43.601562 -9.523438 42.9375 -10.109375 C 42.28125 -10.773438 41.492188 -11.109375 40.578125 -11.109375 L 8.859375 -11.109375 L 8.859375 -7.75 C 8.859375 -6.832031 9.1875 -6.046875 9.84375 -5.390625 C 10.351562 -4.878906 10.921875 -4.566406 11.546875 -4.453125 L 40.578125 -4.453125 C 41.492188 -4.453125 42.28125 -4.78125 42.9375 -5.4375 Z M 42.9375 -5.4375 "/></g></g></g><g fill="#ffffff" fill-opacity="1"><g transform="translate(593.910212, 1063.028792)"><g><path d="M 8.796875 -26.671875 L 8.859375 0 L 4.40625 0 L 4.40625 -26.671875 Z M 8.796875 -26.671875 "/></g></g></g><g fill="#ffffff" fill-opacity="1"><g transform="translate(631.854514, 1063.028792)"><g><path d="M 43.984375 -26.671875 L 48.390625 -26.671875 L 48.390625 0 L 43.9375 0 L 43.9375 -11.109375 L 8.859375 -11.109375 L 8.859375 0 L 4.40625 0 L 4.40625 -26.671875 L 8.796875 -26.671875 L 8.859375 -18.921875 L 8.859375 -15.5625 L 43.9375 -15.5625 L 43.9375 -18.921875 Z M 43.984375 -26.671875 "/></g></g></g><g fill="#ffffff" fill-opacity="1"><g transform="translate(709.332588, 1063.028792)"><g><path d="M 46.078125 -24.40625 C 47.617188 -22.832031 48.390625 -21.003906 48.390625 -18.921875 L 48.390625 0 L 43.9375 0 L 43.9375 -11.109375 L 8.859375 -11.109375 L 8.859375 0 L 4.40625 0 L 4.40625 -18.921875 C 4.40625 -21.003906 5.171875 -22.832031 6.703125 -24.40625 C 8.171875 -25.914062 10.003906 -26.671875 12.203125 -26.671875 L 40.640625 -26.671875 C 42.796875 -26.671875 44.609375 -25.914062 46.078125 -24.40625 Z M 43.9375 -15.5625 L 43.9375 -18.921875 C 43.9375 -19.796875 43.601562 -20.5625 42.9375 -21.21875 C 42.28125 -21.882812 41.492188 -22.21875 40.578125 -22.21875 L 11.546875 -22.21875 C 10.921875 -22.101562 10.351562 -21.789062 9.84375 -21.28125 C 9.1875 -20.625 8.859375 -19.835938 8.859375 -18.921875 L 8.859375 -15.5625 Z M 43.9375 -15.5625 "/></g></g></g><g fill="#ffffff" fill-opacity="1"><g transform="translate(786.810685, 1063.028792)"><g><path d="M 48.390625 -26.671875 L 4.40625 -26.671875 L 4.40625 -22.21875 L 24.25 -22.21875 L 24.25 0 L 28.703125 0 L 28.703125 -22.21875 L 48.390625 -22.21875 Z M 48.390625 -26.671875 "/></g></g></g><g fill="#ffffff" fill-opacity="1"><g transform="translate(864.288736, 1063.028792)"><g><path d="M 46.078125 -24.40625 C 47.617188 -22.875 48.390625 -21.046875 48.390625 -18.921875 L 48.390625 -7.75 C 48.390625 -5.695312 47.617188 -3.863281 46.078125 -2.25 C 44.609375 -0.75 42.796875 0 40.640625 0 L 12.203125 0 C 10.003906 0 8.171875 -0.75 6.703125 -2.25 C 5.171875 -3.789062 4.40625 -5.625 4.40625 -7.75 L 4.40625 -19.03125 C 4.40625 -21.039062 5.171875 -22.832031 6.703125 -24.40625 C 8.171875 -25.914062 9.988281 -26.671875 12.15625 -26.671875 L 40.578125 -26.671875 C 42.742188 -26.671875 44.578125 -25.914062 46.078125 -24.40625 Z M 42.9375 -5.4375 C 43.601562 -6.101562 43.9375 -6.875 43.9375 -7.75 L 43.9375 -18.921875 C 43.9375 -19.835938 43.601562 -20.625 42.9375 -21.28125 C 42.28125 -21.9375 41.492188 -22.265625 40.578125 -22.265625 L 12.203125 -22.265625 C 11.285156 -22.265625 10.5 -21.9375 9.84375 -21.28125 C 9.1875 -20.625 8.859375 -19.835938 8.859375 -18.921875 L 8.859375 -7.75 C 8.859375 -6.832031 9.1875 -6.046875 9.84375 -5.390625 C 10.351562 -4.878906 10.921875 -4.566406 11.546875 -4.453125 L 40.578125 -4.453125 C 41.492188 -4.453125 42.28125 -4.78125 42.9375 -5.4375 Z M 42.9375 -5.4375 "/></g></g></g><g fill="#ffffff" fill-opacity="1"><g transform="translate(941.766787, 1063.028792)"><g><path d="M 46.078125 -24.359375 C 47.617188 -22.816406 48.390625 -21.003906 48.390625 -18.921875 C 48.390625 -16.753906 47.617188 -14.921875 46.078125 -13.421875 C 44.609375 -11.878906 42.773438 -11.109375 40.578125 -11.109375 L 8.859375 -11.109375 L 8.859375 0 L 4.40625 0 L 4.40625 -26.671875 L 40.578125 -26.671875 C 42.773438 -26.671875 44.609375 -25.898438 46.078125 -24.359375 Z M 42.9375 -16.546875 C 43.601562 -17.171875 43.9375 -17.960938 43.9375 -18.921875 C 43.9375 -19.796875 43.601562 -20.5625 42.9375 -21.21875 C 42.28125 -21.882812 41.492188 -22.21875 40.578125 -22.21875 L 8.859375 -22.21875 L 8.859375 -15.5625 L 40.578125 -15.5625 C 41.492188 -15.5625 42.28125 -15.890625 42.9375 -16.546875 Z M 42.9375 -16.546875 "/></g></g></g><g fill="#ffffff" fill-opacity="1"><g transform="translate(1019.244884, 1063.028792)"><g><path d="M 43.984375 -26.671875 L 48.390625 -26.671875 L 48.390625 0 L 43.9375 0 L 43.984375 -21.65625 L 8.859375 0 L 4.40625 0 L 4.40625 -26.671875 L 8.796875 -26.671875 L 8.859375 -5 Z M 43.984375 -26.671875 "/></g></g></g><g fill="#ffffff" fill-opacity="1"><g transform="translate(1096.722981, 1063.028792)"><g><path d="M 46.078125 -13.25 C 47.617188 -11.78125 48.390625 -9.945312 48.390625 -7.75 L 48.390625 0 L 43.9375 0 L 43.9375 -7.75 C 43.9375 -8.738281 43.601562 -9.523438 42.9375 -10.109375 C 42.28125 -10.773438 41.492188 -11.109375 40.578125 -11.109375 L 8.859375 -11.109375 L 8.859375 0 L 4.40625 0 L 4.40625 -26.671875 L 8.796875 -26.671875 L 8.859375 -18.921875 L 8.859375 -15.5625 L 36.296875 -15.5625 L 42.125 -26.671875 L 47.0625 -26.671875 L 41.234375 -15.5625 C 43.140625 -15.414062 44.753906 -14.644531 46.078125 -13.25 Z M 46.078125 -13.25 "/></g></g></g><g fill="#ffffff" fill-opacity="1"><g transform="translate(1174.201032, 1063.028792)"><g><path d="M 46.078125 -24.40625 C 47.617188 -22.832031 48.390625 -21.003906 48.390625 -18.921875 L 48.390625 0 L 43.9375 0 L 43.9375 -11.109375 L 8.859375 -11.109375 L 8.859375 0 L 4.40625 0 L 4.40625 -18.921875 C 4.40625 -21.003906 5.171875 -22.832031 6.703125 -24.40625 C 8.171875 -25.914062 10.003906 -26.671875 12.203125 -26.671875 L 40.640625 -26.671875 C 42.796875 -26.671875 44.609375 -25.914062 46.078125 -24.40625 Z M 43.9375 -15.5625 L 43.9375 -18.921875 C 43.9375 -19.796875 43.601562 -20.5625 42.9375 -21.21875 C 42.28125 -21.882812 41.492188 -22.21875 40.578125 -22.21875 L 11.546875 -22.21875 C 10.921875 -22.101562 10.351562 -21.789062 9.84375 -21.28125 C 9.1875 -20.625 8.859375 -19.835938 8.859375 -18.921875 L 8.859375 -15.5625 Z M 43.9375 -15.5625 "/></g></g></g></svg>