<svg xmlns="http://www.w3.org/2000/svg" xmlns:xlink="http://www.w3.org/1999/xlink" width="500" zoomAndPan="magnify" viewBox="0 0 375 374.999991" height="500" preserveAspectRatio="xMidYMid meet" version="1.0"><defs><g/></defs><g fill="#ff0026" fill-opacity="1"><g transform="translate(1.626565, 203.388512)"><g><path d="M 162.25 -85.96875 C 167.664062 -80.539062 170.375 -74.085938 170.375 -66.609375 L 170.375 -27.296875 C 170.375 -20.066406 167.664062 -13.613281 162.25 -7.9375 C 157.082031 -2.644531 150.691406 0 143.078125 0 L 42.984375 0 C 35.234375 0 28.78125 -2.644531 23.625 -7.9375 C 18.195312 -13.351562 15.484375 -19.804688 15.484375 -27.296875 L 15.484375 -66.984375 C 15.484375 -74.085938 18.195312 -80.414062 23.625 -85.96875 C 28.78125 -91.257812 35.164062 -93.90625 42.78125 -93.90625 L 142.890625 -93.90625 C 150.503906 -93.90625 156.957031 -91.257812 162.25 -85.96875 Z M 151.203125 -19.171875 C 153.523438 -21.492188 154.6875 -24.203125 154.6875 -27.296875 L 154.6875 -66.609375 C 154.6875 -69.828125 153.523438 -72.597656 151.203125 -74.921875 C 148.878906 -77.242188 146.109375 -78.40625 142.890625 -78.40625 L 42.984375 -78.40625 C 39.753906 -78.40625 36.976562 -77.242188 34.65625 -74.921875 C 32.332031 -72.597656 31.171875 -69.828125 31.171875 -66.609375 L 31.171875 -27.296875 C 31.171875 -24.066406 32.332031 -21.289062 34.65625 -18.96875 C 36.457031 -17.164062 38.457031 -16.070312 40.65625 -15.6875 L 142.890625 -15.6875 C 146.109375 -15.6875 148.878906 -16.847656 151.203125 -19.171875 Z M 151.203125 -19.171875 "/></g></g></g><g fill="#ff0026" fill-opacity="1"><g transform="translate(187.494237, 203.388512)"><g><path d="M 162.046875 -46.65625 L 162.25 -46.46875 C 167.664062 -41.039062 170.375 -34.648438 170.375 -27.296875 C 170.375 -20.066406 167.664062 -13.613281 162.25 -7.9375 C 157.082031 -2.644531 150.691406 0 143.078125 0 L 142.890625 0 L 142.890625 0.1875 L 42.78125 0.1875 C 35.164062 0.1875 28.78125 -2.457031 23.625 -7.75 C 18.195312 -13.425781 15.484375 -19.878906 15.484375 -27.109375 L 31.171875 -27.109375 C 31.171875 -24.003906 32.332031 -21.289062 34.65625 -18.96875 C 36.976562 -16.644531 39.753906 -15.484375 42.984375 -15.484375 L 142.890625 -15.484375 C 146.109375 -15.484375 148.878906 -16.644531 151.203125 -18.96875 C 153.523438 -21.289062 154.6875 -24.066406 154.6875 -27.296875 C 154.6875 -30.523438 153.523438 -33.300781 151.203125 -35.625 C 148.753906 -37.820312 145.984375 -38.921875 142.890625 -38.921875 L 15.484375 -38.921875 L 15.484375 -54.59375 L 143.078125 -54.59375 C 146.304688 -54.59375 149.082031 -55.753906 151.40625 -58.078125 C 153.59375 -60.273438 154.6875 -63.050781 154.6875 -66.40625 C 154.6875 -69.632812 153.59375 -72.347656 151.40625 -74.546875 C 149.082031 -76.867188 146.304688 -78.03125 143.078125 -78.03125 L 42.984375 -78.03125 C 39.628906 -78.03125 36.851562 -76.929688 34.65625 -74.734375 C 32.332031 -72.410156 31.171875 -69.632812 31.171875 -66.40625 L 15.484375 -66.40625 C 15.484375 -73.894531 18.195312 -80.347656 23.625 -85.765625 C 28.914062 -91.054688 35.367188 -93.703125 42.984375 -93.703125 L 143.078125 -93.703125 C 150.566406 -93.703125 157.019531 -90.992188 162.4375 -85.578125 C 167.726562 -80.285156 170.375 -73.894531 170.375 -66.40625 C 170.375 -58.789062 167.726562 -52.335938 162.4375 -47.046875 Z M 162.046875 -46.65625 "/></g></g></g></svg>