<svg xmlns="http://www.w3.org/2000/svg" xmlns:xlink="http://www.w3.org/1999/xlink" width="1200" zoomAndPan="magnify" viewBox="0 0 900 299.999988" height="400" preserveAspectRatio="xMidYMid meet" version="1.0"><defs><g/></defs><g fill="#f5f7ff" fill-opacity="1"><g transform="translate(253.828122, 166.12424)"><g><path d="M 64.453125 -34.140625 C 66.597656 -31.941406 67.671875 -29.378906 67.671875 -26.453125 L 67.671875 0 L 61.453125 0 L 61.453125 -15.53125 L 12.375 -15.53125 L 12.375 0 L 6.15625 0 L 6.15625 -26.453125 C 6.15625 -29.378906 7.226562 -31.941406 9.375 -34.140625 C 11.425781 -36.242188 13.992188 -37.296875 17.078125 -37.296875 L 56.828125 -37.296875 C 59.859375 -37.296875 62.398438 -36.242188 64.453125 -34.140625 Z M 61.453125 -21.765625 L 61.453125 -26.453125 C 61.453125 -27.679688 60.988281 -28.757812 60.0625 -29.6875 C 59.132812 -30.601562 58.03125 -31.0625 56.75 -31.0625 L 16.15625 -31.0625 C 15.28125 -30.914062 14.484375 -30.484375 13.765625 -29.765625 C 12.835938 -28.835938 12.375 -27.734375 12.375 -26.453125 L 12.375 -21.765625 Z M 61.453125 -21.765625 "/></g></g></g><g fill="#f5f7ff" fill-opacity="1"><g transform="translate(327.650576, 166.12424)"><g><path d="M 61.53125 -37.296875 L 67.671875 -37.296875 L 67.671875 0 L 61.453125 0 L 61.453125 -15.53125 L 12.375 -15.53125 L 12.375 0 L 6.15625 0 L 6.15625 -37.296875 L 12.3125 -37.296875 L 12.375 -26.453125 L 12.375 -21.765625 L 61.453125 -21.765625 L 61.453125 -26.453125 Z M 61.53125 -37.296875 "/></g></g></g><g fill="#f5f7ff" fill-opacity="1"><g transform="translate(401.47303, 166.12424)"><g><path d="M 64.453125 -34.140625 C 66.597656 -31.941406 67.671875 -29.378906 67.671875 -26.453125 L 67.671875 0 L 61.453125 0 L 61.453125 -15.53125 L 12.375 -15.53125 L 12.375 0 L 6.15625 0 L 6.15625 -26.453125 C 6.15625 -29.378906 7.226562 -31.941406 9.375 -34.140625 C 11.425781 -36.242188 13.992188 -37.296875 17.078125 -37.296875 L 56.828125 -37.296875 C 59.859375 -37.296875 62.398438 -36.242188 64.453125 -34.140625 Z M 61.453125 -21.765625 L 61.453125 -26.453125 C 61.453125 -27.679688 60.988281 -28.757812 60.0625 -29.6875 C 59.132812 -30.601562 58.03125 -31.0625 56.75 -31.0625 L 16.15625 -31.0625 C 15.28125 -30.914062 14.484375 -30.484375 13.765625 -29.765625 C 12.835938 -28.835938 12.375 -27.734375 12.375 -26.453125 L 12.375 -21.765625 Z M 61.453125 -21.765625 "/></g></g></g><g fill="#f5f7ff" fill-opacity="1"><g transform="translate(475.295496, 166.12424)"><g><path d="M 69.140625 -34.21875 C 71.296875 -32.019531 72.375 -29.457031 72.375 -26.53125 L 72.375 0 L 66.140625 0 L 66.140625 -26.53125 C 66.140625 -27.757812 65.675781 -28.835938 64.75 -29.765625 C 63.832031 -30.679688 62.734375 -31.140625 61.453125 -31.140625 L 20.84375 -31.140625 C 19.96875 -30.992188 19.171875 -30.5625 18.453125 -29.84375 C 17.535156 -28.914062 17.078125 -27.8125 17.078125 -26.53125 L 17.078125 -10.84375 C 17.078125 -7.96875 16 -5.40625 13.84375 -3.15625 C 11.789062 -1.050781 9.253906 0 6.234375 0 L 6.15625 -6.15625 C 7.4375 -6.15625 8.535156 -6.613281 9.453125 -7.53125 C 10.378906 -8.457031 10.84375 -9.5625 10.84375 -10.84375 L 10.84375 -26.53125 C 10.84375 -29.457031 11.921875 -32.019531 14.078125 -34.21875 C 16.128906 -36.320312 18.691406 -37.375 21.765625 -37.375 L 61.53125 -37.375 C 64.550781 -37.375 67.085938 -36.320312 69.140625 -34.21875 Z M 69.140625 -34.21875 "/></g></g></g><g fill="#f5f7ff" fill-opacity="1"><g transform="translate(553.808734, 166.12424)"><g><path d="M 12.3125 -27.078125 L 12.375 -37.296875 L 6.15625 -37.296875 L 6.15625 -27.078125 Z M 12.3125 -20.84375 L 12.375 0 L 6.15625 0 L 6.15625 -20.84375 Z M 12.3125 -20.84375 "/></g></g></g><g fill="#f5f7ff" fill-opacity="1"><g transform="translate(572.341249, 166.12424)"><g><path d="M 64.453125 -18.453125 C 66.597656 -16.304688 67.671875 -13.769531 67.671875 -10.84375 C 67.671875 -7.96875 66.597656 -5.40625 64.453125 -3.15625 C 62.398438 -1.050781 59.859375 0 56.828125 0 L 6.15625 0 L 6.15625 -6.15625 L 56.75 -6.15625 C 58.03125 -6.15625 59.132812 -6.613281 60.0625 -7.53125 C 60.988281 -8.457031 61.453125 -9.5625 61.453125 -10.84375 C 61.453125 -12.125 60.988281 -13.226562 60.0625 -14.15625 C 59.09375 -15.019531 57.988281 -15.453125 56.75 -15.453125 L 6.15625 -15.453125 L 6.15625 -21.6875 L 56.828125 -21.6875 C 58.109375 -21.6875 59.210938 -22.148438 60.140625 -23.078125 C 61.015625 -23.941406 61.453125 -25.039062 61.453125 -26.375 C 61.453125 -27.65625 61.015625 -28.734375 60.140625 -29.609375 C 59.210938 -30.535156 58.109375 -31 56.828125 -31 L 6.15625 -31 L 6.15625 -37.21875 L 56.828125 -37.21875 C 59.804688 -37.21875 62.375 -36.144531 64.53125 -34 C 66.625 -31.894531 67.671875 -29.351562 67.671875 -26.375 C 67.671875 -23.351562 66.625 -20.789062 64.53125 -18.6875 L 64.375 -18.53125 Z M 64.453125 -18.453125 "/></g></g></g></svg>