<svg xmlns="http://www.w3.org/2000/svg" xmlns:xlink="http://www.w3.org/1999/xlink" width="1200" zoomAndPan="magnify" viewBox="0 0 900 299.999988" height="400" preserveAspectRatio="xMidYMid meet" version="1.0"><defs><g/></defs><g fill="#f5f7ff" fill-opacity="1"><g transform="translate(39.281265, 166.12424)"><g><path d="M 64.453125 -18.53125 C 66.597656 -16.476562 67.671875 -13.914062 67.671875 -10.84375 L 67.671875 0 L 61.453125 0 L 61.453125 -10.84375 C 61.453125 -12.226562 60.988281 -13.332031 60.0625 -14.15625 C 59.132812 -15.070312 58.03125 -15.53125 56.75 -15.53125 L 12.375 -15.53125 L 12.375 0 L 6.15625 0 L 6.15625 -37.296875 L 12.3125 -37.296875 L 12.375 -26.453125 L 12.375 -21.765625 L 50.765625 -21.765625 L 58.90625 -37.296875 L 65.828125 -37.296875 L 57.671875 -21.765625 C 60.335938 -21.554688 62.597656 -20.476562 64.453125 -18.53125 Z M 64.453125 -18.53125 "/></g></g></g><g fill="#f5f7ff" fill-opacity="1"><g transform="translate(113.103719, 166.12424)"><g><path d="M 64.453125 -34.140625 C 66.597656 -31.941406 67.671875 -29.378906 67.671875 -26.453125 L 67.671875 0 L 61.453125 0 L 61.453125 -15.53125 L 12.375 -15.53125 L 12.375 0 L 6.15625 0 L 6.15625 -26.453125 C 6.15625 -29.378906 7.226562 -31.941406 9.375 -34.140625 C 11.425781 -36.242188 13.992188 -37.296875 17.078125 -37.296875 L 56.828125 -37.296875 C 59.859375 -37.296875 62.398438 -36.242188 64.453125 -34.140625 Z M 61.453125 -21.765625 L 61.453125 -26.453125 C 61.453125 -27.679688 60.988281 -28.757812 60.0625 -29.6875 C 59.132812 -30.601562 58.03125 -31.0625 56.75 -31.0625 L 16.15625 -31.0625 C 15.28125 -30.914062 14.484375 -30.484375 13.765625 -29.765625 C 12.835938 -28.835938 12.375 -27.734375 12.375 -26.453125 L 12.375 -21.765625 Z M 61.453125 -21.765625 "/></g></g></g><g fill="#f5f7ff" fill-opacity="1"><g transform="translate(186.926173, 166.12424)"><g><path d="M 69.140625 -34.21875 C 71.296875 -32.019531 72.375 -29.457031 72.375 -26.53125 L 72.375 0 L 66.140625 0 L 66.140625 -26.53125 C 66.140625 -27.757812 65.675781 -28.835938 64.75 -29.765625 C 63.832031 -30.679688 62.734375 -31.140625 61.453125 -31.140625 L 20.84375 -31.140625 C 19.96875 -30.992188 19.171875 -30.5625 18.453125 -29.84375 C 17.535156 -28.914062 17.078125 -27.8125 17.078125 -26.53125 L 17.078125 -10.84375 C 17.078125 -7.96875 16 -5.40625 13.84375 -3.15625 C 11.789062 -1.050781 9.253906 0 6.234375 0 L 6.15625 -6.15625 C 7.4375 -6.15625 8.535156 -6.613281 9.453125 -7.53125 C 10.378906 -8.457031 10.84375 -9.5625 10.84375 -10.84375 L 10.84375 -26.53125 C 10.84375 -29.457031 11.921875 -32.019531 14.078125 -34.21875 C 16.128906 -36.320312 18.691406 -37.375 21.765625 -37.375 L 61.53125 -37.375 C 64.550781 -37.375 67.085938 -36.320312 69.140625 -34.21875 Z M 69.140625 -34.21875 "/></g></g></g><g fill="#f5f7ff" fill-opacity="1"><g transform="translate(265.439435, 166.12424)"><g><path d="M 64.453125 -18.53125 C 66.597656 -16.476562 67.671875 -13.914062 67.671875 -10.84375 C 67.671875 -7.96875 66.597656 -5.40625 64.453125 -3.15625 C 62.398438 -1.050781 59.859375 0 56.828125 0 L 17.078125 0 C 13.992188 0 11.425781 -1.050781 9.375 -3.15625 C 7.226562 -5.3125 6.15625 -7.875 6.15625 -10.84375 L 6.15625 -37.296875 L 12.3125 -37.296875 L 12.375 -26.453125 L 12.375 -21.765625 L 56.75 -21.765625 C 59.832031 -21.765625 62.398438 -20.6875 64.453125 -18.53125 Z M 60.0625 -7.609375 C 60.988281 -8.535156 61.453125 -9.613281 61.453125 -10.84375 C 61.453125 -12.226562 60.988281 -13.332031 60.0625 -14.15625 C 59.132812 -15.070312 58.03125 -15.53125 56.75 -15.53125 L 12.375 -15.53125 L 12.375 -10.84375 C 12.375 -9.5625 12.835938 -8.457031 13.765625 -7.53125 C 14.484375 -6.8125 15.28125 -6.378906 16.15625 -6.234375 L 56.75 -6.234375 C 58.03125 -6.234375 59.132812 -6.691406 60.0625 -7.609375 Z M 60.0625 -7.609375 "/></g></g></g><g fill="#f5f7ff" fill-opacity="1"><g transform="translate(339.261878, 166.12424)"><g><path d="M 64.453125 -18.53125 C 66.597656 -16.476562 67.671875 -13.914062 67.671875 -10.84375 L 67.671875 0 L 61.453125 0 L 61.453125 -10.84375 C 61.453125 -12.226562 60.988281 -13.332031 60.0625 -14.15625 C 59.132812 -15.070312 58.03125 -15.53125 56.75 -15.53125 L 12.375 -15.53125 L 12.375 0 L 6.15625 0 L 6.15625 -37.296875 L 12.3125 -37.296875 L 12.375 -26.453125 L 12.375 -21.765625 L 50.765625 -21.765625 L 58.90625 -37.296875 L 65.828125 -37.296875 L 57.671875 -21.765625 C 60.335938 -21.554688 62.597656 -20.476562 64.453125 -18.53125 Z M 64.453125 -18.53125 "/></g></g></g><g fill="#f5f7ff" fill-opacity="1"><g transform="translate(413.084343, 166.12424)"><g><path d="M 61.453125 -37.296875 L 67.671875 -37.296875 L 67.671875 -10.6875 C 67.671875 -7.914062 66.597656 -5.40625 64.453125 -3.15625 C 62.398438 -1.050781 59.859375 0 56.828125 0 L 17.078125 0 C 14.046875 0 11.476562 -1.050781 9.375 -3.15625 C 7.226562 -5.3125 6.15625 -7.875 6.15625 -10.84375 L 12.375 -10.84375 C 12.375 -9.5625 12.835938 -8.457031 13.765625 -7.53125 C 14.691406 -6.613281 15.796875 -6.15625 17.078125 -6.15625 L 56.75 -6.15625 C 58.03125 -6.15625 59.132812 -6.613281 60.0625 -7.53125 C 60.988281 -8.457031 61.453125 -9.5625 61.453125 -10.84375 L 61.453125 -15.53125 L 17.078125 -15.53125 C 14.046875 -15.53125 11.476562 -16.609375 9.375 -18.765625 C 7.226562 -20.867188 6.15625 -23.429688 6.15625 -26.453125 L 6.15625 -37.296875 L 12.375 -37.296875 L 12.375 -26.453125 C 12.375 -25.117188 12.835938 -24.019531 13.765625 -23.15625 C 14.691406 -22.226562 15.796875 -21.765625 17.078125 -21.765625 L 61.453125 -21.765625 Z M 61.453125 -37.296875 "/></g></g></g><g fill="#f5f7ff" fill-opacity="1"><g transform="translate(486.906809, 166.12424)"><g><path d="M 69.140625 -34.21875 C 71.296875 -32.019531 72.375 -29.457031 72.375 -26.53125 L 72.375 0 L 66.140625 0 L 66.140625 -26.53125 C 66.140625 -27.757812 65.675781 -28.835938 64.75 -29.765625 C 63.832031 -30.679688 62.734375 -31.140625 61.453125 -31.140625 L 20.84375 -31.140625 C 19.96875 -30.992188 19.171875 -30.5625 18.453125 -29.84375 C 17.535156 -28.914062 17.078125 -27.8125 17.078125 -26.53125 L 17.078125 -10.84375 C 17.078125 -7.96875 16 -5.40625 13.84375 -3.15625 C 11.789062 -1.050781 9.253906 0 6.234375 0 L 6.15625 -6.15625 C 7.4375 -6.15625 8.535156 -6.613281 9.453125 -7.53125 C 10.378906 -8.457031 10.84375 -9.5625 10.84375 -10.84375 L 10.84375 -26.53125 C 10.84375 -29.457031 11.921875 -32.019531 14.078125 -34.21875 C 16.128906 -36.320312 18.691406 -37.375 21.765625 -37.375 L 61.53125 -37.375 C 64.550781 -37.375 67.085938 -36.320312 69.140625 -34.21875 Z M 69.140625 -34.21875 "/></g></g></g><g fill="#f5f7ff" fill-opacity="1"><g transform="translate(565.420047, 166.12424)"><g><path d="M 7.765625 -20.6875 C 6.691406 -22.476562 6.15625 -24.398438 6.15625 -26.453125 C 6.15625 -29.378906 7.226562 -31.914062 9.375 -34.0625 C 11.476562 -36.21875 14.046875 -37.296875 17.078125 -37.296875 L 67.671875 -37.296875 L 67.671875 0 L 61.453125 0 L 61.453125 -15.53125 L 24.765625 -15.53125 C 21.429688 -15.53125 18.507812 -14.328125 16 -11.921875 C 13.582031 -9.410156 12.375 -6.488281 12.375 -3.15625 L 12.375 0 L 6.15625 0 L 6.15625 -3.15625 C 6.15625 -8.539062 8.128906 -13.078125 12.078125 -16.765625 C 10.273438 -17.691406 8.835938 -19 7.765625 -20.6875 Z M 13.765625 -23.15625 C 14.691406 -22.226562 15.796875 -21.765625 17.078125 -21.765625 L 61.453125 -21.765625 L 61.453125 -31.0625 L 17.078125 -31.0625 C 15.796875 -31.0625 14.691406 -30.601562 13.765625 -29.6875 C 12.835938 -28.757812 12.375 -27.679688 12.375 -26.453125 C 12.375 -25.117188 12.835938 -24.019531 13.765625 -23.15625 Z M 13.765625 -23.15625 "/></g></g></g><g fill="#f5f7ff" fill-opacity="1"><g transform="translate(639.24249, 166.12424)"><g><path d="M 67.671875 -37.296875 L 6.15625 -37.296875 L 6.15625 -31.0625 L 33.921875 -31.0625 L 33.921875 0 L 40.140625 0 L 40.140625 -31.0625 L 67.671875 -31.0625 Z M 67.671875 -37.296875 "/></g></g></g><g fill="#f5f7ff" fill-opacity="1"><g transform="translate(713.064978, 166.12424)"><g><path d="M 64.453125 -34.140625 C 66.597656 -31.992188 67.671875 -29.429688 67.671875 -26.453125 L 67.671875 -10.84375 C 67.671875 -7.96875 66.597656 -5.40625 64.453125 -3.15625 C 62.398438 -1.050781 59.859375 0 56.828125 0 L 17.078125 0 C 13.992188 0 11.425781 -1.050781 9.375 -3.15625 C 7.226562 -5.3125 6.15625 -7.875 6.15625 -10.84375 L 6.15625 -26.609375 C 6.15625 -29.429688 7.226562 -31.941406 9.375 -34.140625 C 11.425781 -36.242188 13.96875 -37.296875 17 -37.296875 L 56.75 -37.296875 C 59.78125 -37.296875 62.347656 -36.242188 64.453125 -34.140625 Z M 60.0625 -7.609375 C 60.988281 -8.535156 61.453125 -9.613281 61.453125 -10.84375 L 61.453125 -26.453125 C 61.453125 -27.734375 60.988281 -28.835938 60.0625 -29.765625 C 59.132812 -30.679688 58.03125 -31.140625 56.75 -31.140625 L 17.078125 -31.140625 C 15.796875 -31.140625 14.691406 -30.679688 13.765625 -29.765625 C 12.835938 -28.835938 12.375 -27.734375 12.375 -26.453125 L 12.375 -10.84375 C 12.375 -9.5625 12.835938 -8.457031 13.765625 -7.53125 C 14.484375 -6.8125 15.28125 -6.378906 16.15625 -6.234375 L 56.75 -6.234375 C 58.03125 -6.234375 59.132812 -6.691406 60.0625 -7.609375 Z M 60.0625 -7.609375 "/></g></g></g><g fill="#f5f7ff" fill-opacity="1"><g transform="translate(786.887421, 166.12424)"><g><path d="M 64.453125 -34.0625 C 66.597656 -31.914062 67.671875 -29.378906 67.671875 -26.453125 C 67.671875 -23.429688 66.597656 -20.867188 64.453125 -18.765625 C 62.398438 -16.609375 59.832031 -15.53125 56.75 -15.53125 L 12.375 -15.53125 L 12.375 0 L 6.15625 0 L 6.15625 -37.296875 L 56.75 -37.296875 C 59.832031 -37.296875 62.398438 -36.21875 64.453125 -34.0625 Z M 60.0625 -23.15625 C 60.988281 -24.019531 61.453125 -25.117188 61.453125 -26.453125 C 61.453125 -27.679688 60.988281 -28.757812 60.0625 -29.6875 C 59.132812 -30.601562 58.03125 -31.0625 56.75 -31.0625 L 12.375 -31.0625 L 12.375 -21.765625 L 56.75 -21.765625 C 58.03125 -21.765625 59.132812 -22.226562 60.0625 -23.15625 Z M 60.0625 -23.15625 "/></g></g></g></svg>