<svg xmlns="http://www.w3.org/2000/svg" xmlns:xlink="http://www.w3.org/1999/xlink" width="1200" zoomAndPan="magnify" viewBox="0 0 900 299.999988" height="400" preserveAspectRatio="xMidYMid meet" version="1.0"><defs><g/></defs><g fill="#f5f7ff" fill-opacity="1"><g transform="translate(154.703913, 166.12424)"><g><path d="M 64.453125 -18.53125 C 66.597656 -16.476562 67.671875 -13.914062 67.671875 -10.84375 C 67.671875 -7.914062 66.597656 -5.378906 64.453125 -3.234375 C 62.398438 -1.078125 59.832031 0 56.75 0 L 6.15625 0 L 6.15625 -37.296875 L 56.75 -37.296875 C 59.832031 -37.296875 62.398438 -36.21875 64.453125 -34.0625 C 66.597656 -31.914062 67.671875 -29.378906 67.671875 -26.453125 C 67.671875 -23.429688 66.597656 -20.867188 64.453125 -18.765625 C 64.453125 -18.710938 64.4375 -18.6875 64.40625 -18.6875 C 64.382812 -18.6875 64.375 -18.6875 64.375 -18.6875 C 64.375 -18.632812 64.382812 -18.609375 64.40625 -18.609375 C 64.4375 -18.609375 64.453125 -18.582031 64.453125 -18.53125 Z M 12.375 -31.0625 L 12.375 -21.765625 L 56.75 -21.765625 C 58.03125 -21.765625 59.132812 -22.226562 60.0625 -23.15625 C 60.988281 -24.019531 61.453125 -25.117188 61.453125 -26.453125 C 61.453125 -27.679688 60.988281 -28.757812 60.0625 -29.6875 C 59.132812 -30.601562 58.03125 -31.0625 56.75 -31.0625 Z M 60.0625 -7.609375 C 60.988281 -8.535156 61.453125 -9.613281 61.453125 -10.84375 C 61.453125 -12.226562 60.988281 -13.332031 60.0625 -14.15625 C 59.132812 -15.070312 58.03125 -15.53125 56.75 -15.53125 L 12.375 -15.53125 L 12.375 -6.234375 L 56.75 -6.234375 C 58.03125 -6.234375 59.132812 -6.691406 60.0625 -7.609375 Z M 60.0625 -7.609375 "/></g></g></g><g fill="#f5f7ff" fill-opacity="1"><g transform="translate(228.526367, 166.12424)"><g><path d="M 61.53125 -37.296875 L 67.671875 -37.296875 L 67.671875 0 L 61.453125 0 L 61.53125 -30.296875 L 12.375 0 L 6.15625 0 L 6.15625 -37.296875 L 12.3125 -37.296875 L 12.375 -7 Z M 61.53125 -37.296875 "/></g></g></g><g fill="#f5f7ff" fill-opacity="1"><g transform="translate(302.348821, 166.12424)"><g><path d="M 61.453125 -10.84375 L 67.671875 -10.84375 C 67.671875 -7.96875 66.597656 -5.40625 64.453125 -3.15625 C 62.398438 -1.050781 59.859375 0 56.828125 0 L 17.078125 0 C 13.992188 0 11.425781 -1.050781 9.375 -3.15625 C 7.226562 -5.3125 6.15625 -7.875 6.15625 -10.84375 L 6.15625 -26.609375 C 6.15625 -29.429688 7.226562 -31.941406 9.375 -34.140625 C 11.425781 -36.242188 13.96875 -37.296875 17 -37.296875 L 56.75 -37.296875 C 59.78125 -37.296875 62.347656 -36.242188 64.453125 -34.140625 C 66.597656 -31.992188 67.671875 -29.429688 67.671875 -26.453125 L 61.453125 -26.453125 C 61.453125 -27.734375 60.988281 -28.835938 60.0625 -29.765625 C 59.132812 -30.679688 58.03125 -31.140625 56.75 -31.140625 L 17.078125 -31.140625 C 15.796875 -31.140625 14.691406 -30.679688 13.765625 -29.765625 C 12.835938 -28.835938 12.375 -27.734375 12.375 -26.453125 L 12.375 -10.84375 C 12.375 -9.5625 12.835938 -8.457031 13.765625 -7.53125 C 14.484375 -6.8125 15.28125 -6.378906 16.15625 -6.234375 L 56.75 -6.234375 C 58.03125 -6.234375 59.132812 -6.691406 60.0625 -7.609375 C 60.988281 -8.535156 61.453125 -9.613281 61.453125 -10.84375 Z M 61.453125 -10.84375 "/></g></g></g><g fill="#f5f7ff" fill-opacity="1"><g transform="translate(376.171287, 166.12424)"><g><path d="M 61.53125 -37.296875 L 67.671875 -37.296875 L 67.671875 0 L 61.453125 0 L 61.453125 -15.53125 L 12.375 -15.53125 L 12.375 0 L 6.15625 0 L 6.15625 -37.296875 L 12.3125 -37.296875 L 12.375 -26.453125 L 12.375 -21.765625 L 61.453125 -21.765625 L 61.453125 -26.453125 Z M 61.53125 -37.296875 "/></g></g></g><g fill="#f5f7ff" fill-opacity="1"><g transform="translate(449.99373, 166.12424)"><g><path d="M 64.453125 -34.140625 C 66.597656 -31.992188 67.671875 -29.429688 67.671875 -26.453125 L 67.671875 -10.84375 C 67.671875 -7.96875 66.597656 -5.40625 64.453125 -3.15625 C 62.398438 -1.050781 59.859375 0 56.828125 0 L 17.078125 0 C 13.992188 0 11.425781 -1.050781 9.375 -3.15625 C 7.226562 -5.3125 6.15625 -7.875 6.15625 -10.84375 L 6.15625 -26.609375 C 6.15625 -29.429688 7.226562 -31.941406 9.375 -34.140625 C 11.425781 -36.242188 13.96875 -37.296875 17 -37.296875 L 56.75 -37.296875 C 59.78125 -37.296875 62.347656 -36.242188 64.453125 -34.140625 Z M 60.0625 -7.609375 C 60.988281 -8.535156 61.453125 -9.613281 61.453125 -10.84375 L 61.453125 -26.453125 C 61.453125 -27.734375 60.988281 -28.835938 60.0625 -29.765625 C 59.132812 -30.679688 58.03125 -31.140625 56.75 -31.140625 L 17.078125 -31.140625 C 15.796875 -31.140625 14.691406 -30.679688 13.765625 -29.765625 C 12.835938 -28.835938 12.375 -27.734375 12.375 -26.453125 L 12.375 -10.84375 C 12.375 -9.5625 12.835938 -8.457031 13.765625 -7.53125 C 14.484375 -6.8125 15.28125 -6.378906 16.15625 -6.234375 L 56.75 -6.234375 C 58.03125 -6.234375 59.132812 -6.691406 60.0625 -7.609375 Z M 60.0625 -7.609375 "/></g></g></g><g fill="#f5f7ff" fill-opacity="1"><g transform="translate(523.816173, 166.12424)"><g><path d="M 64.453125 -18.53125 C 66.597656 -16.476562 67.671875 -13.914062 67.671875 -10.84375 C 67.671875 -7.914062 66.597656 -5.378906 64.453125 -3.234375 C 62.398438 -1.078125 59.832031 0 56.75 0 L 6.15625 0 L 6.15625 -37.296875 L 56.75 -37.296875 C 59.832031 -37.296875 62.398438 -36.21875 64.453125 -34.0625 C 66.597656 -31.914062 67.671875 -29.378906 67.671875 -26.453125 C 67.671875 -23.429688 66.597656 -20.867188 64.453125 -18.765625 C 64.453125 -18.710938 64.4375 -18.6875 64.40625 -18.6875 C 64.382812 -18.6875 64.375 -18.6875 64.375 -18.6875 C 64.375 -18.632812 64.382812 -18.609375 64.40625 -18.609375 C 64.4375 -18.609375 64.453125 -18.582031 64.453125 -18.53125 Z M 12.375 -31.0625 L 12.375 -21.765625 L 56.75 -21.765625 C 58.03125 -21.765625 59.132812 -22.226562 60.0625 -23.15625 C 60.988281 -24.019531 61.453125 -25.117188 61.453125 -26.453125 C 61.453125 -27.679688 60.988281 -28.757812 60.0625 -29.6875 C 59.132812 -30.601562 58.03125 -31.0625 56.75 -31.0625 Z M 60.0625 -7.609375 C 60.988281 -8.535156 61.453125 -9.613281 61.453125 -10.84375 C 61.453125 -12.226562 60.988281 -13.332031 60.0625 -14.15625 C 59.132812 -15.070312 58.03125 -15.53125 56.75 -15.53125 L 12.375 -15.53125 L 12.375 -6.234375 L 56.75 -6.234375 C 58.03125 -6.234375 59.132812 -6.691406 60.0625 -7.609375 Z M 60.0625 -7.609375 "/></g></g></g><g fill="#f5f7ff" fill-opacity="1"><g transform="translate(597.638661, 166.12424)"><g><path d="M 64.453125 -18.53125 C 66.597656 -16.476562 67.671875 -13.914062 67.671875 -10.84375 L 67.671875 0 L 61.453125 0 L 61.453125 -10.84375 C 61.453125 -12.226562 60.988281 -13.332031 60.0625 -14.15625 C 59.132812 -15.070312 58.03125 -15.53125 56.75 -15.53125 L 12.375 -15.53125 L 12.375 0 L 6.15625 0 L 6.15625 -37.296875 L 12.3125 -37.296875 L 12.375 -26.453125 L 12.375 -21.765625 L 50.765625 -21.765625 L 58.90625 -37.296875 L 65.828125 -37.296875 L 57.671875 -21.765625 C 60.335938 -21.554688 62.597656 -20.476562 64.453125 -18.53125 Z M 64.453125 -18.53125 "/></g></g></g><g fill="#f5f7ff" fill-opacity="1"><g transform="translate(671.461104, 166.12424)"><g><path d="M 61.53125 -37.296875 L 67.671875 -37.296875 L 67.671875 0 L 61.453125 0 L 61.53125 -30.296875 L 12.375 0 L 6.15625 0 L 6.15625 -37.296875 L 12.3125 -37.296875 L 12.375 -7 Z M 61.53125 -37.296875 "/></g></g></g></svg>