<svg xmlns="http://www.w3.org/2000/svg" xmlns:xlink="http://www.w3.org/1999/xlink" width="1200" zoomAndPan="magnify" viewBox="0 0 900 299.999988" height="400" preserveAspectRatio="xMidYMid meet" version="1.0"><defs><g/></defs><g fill="#f5f7ff" fill-opacity="1"><g transform="translate(219.257812, 166.12424)"><g><path d="M 64.453125 -18.453125 C 66.597656 -16.304688 67.671875 -13.769531 67.671875 -10.84375 C 67.671875 -7.96875 66.597656 -5.40625 64.453125 -3.15625 C 62.398438 -1.050781 59.859375 0 56.828125 0 L 6.15625 0 L 6.15625 -6.15625 L 56.75 -6.15625 C 58.03125 -6.15625 59.132812 -6.613281 60.0625 -7.53125 C 60.988281 -8.457031 61.453125 -9.5625 61.453125 -10.84375 C 61.453125 -12.125 60.988281 -13.226562 60.0625 -14.15625 C 59.09375 -15.019531 57.988281 -15.453125 56.75 -15.453125 L 6.15625 -15.453125 L 6.15625 -21.6875 L 56.828125 -21.6875 C 58.109375 -21.6875 59.210938 -22.148438 60.140625 -23.078125 C 61.015625 -23.941406 61.453125 -25.039062 61.453125 -26.375 C 61.453125 -27.65625 61.015625 -28.734375 60.140625 -29.609375 C 59.210938 -30.535156 58.109375 -31 56.828125 -31 L 6.15625 -31 L 6.15625 -37.21875 L 56.828125 -37.21875 C 59.804688 -37.21875 62.375 -36.144531 64.53125 -34 C 66.625 -31.894531 67.671875 -29.351562 67.671875 -26.375 C 67.671875 -23.351562 66.625 -20.789062 64.53125 -18.6875 L 64.375 -18.53125 Z M 64.453125 -18.453125 "/></g></g></g><g fill="#f5f7ff" fill-opacity="1"><g transform="translate(293.080266, 166.12424)"><g><path d="M 64.453125 -18.53125 C 66.597656 -16.476562 67.671875 -13.914062 67.671875 -10.84375 C 67.671875 -7.914062 66.597656 -5.378906 64.453125 -3.234375 C 62.398438 -1.078125 59.832031 0 56.75 0 L 6.15625 0 L 6.15625 -37.296875 L 56.75 -37.296875 C 59.832031 -37.296875 62.398438 -36.21875 64.453125 -34.0625 C 66.597656 -31.914062 67.671875 -29.378906 67.671875 -26.453125 C 67.671875 -23.429688 66.597656 -20.867188 64.453125 -18.765625 C 64.453125 -18.710938 64.4375 -18.6875 64.40625 -18.6875 C 64.382812 -18.6875 64.375 -18.6875 64.375 -18.6875 C 64.375 -18.632812 64.382812 -18.609375 64.40625 -18.609375 C 64.4375 -18.609375 64.453125 -18.582031 64.453125 -18.53125 Z M 12.375 -31.0625 L 12.375 -21.765625 L 56.75 -21.765625 C 58.03125 -21.765625 59.132812 -22.226562 60.0625 -23.15625 C 60.988281 -24.019531 61.453125 -25.117188 61.453125 -26.453125 C 61.453125 -27.679688 60.988281 -28.757812 60.0625 -29.6875 C 59.132812 -30.601562 58.03125 -31.0625 56.75 -31.0625 Z M 60.0625 -7.609375 C 60.988281 -8.535156 61.453125 -9.613281 61.453125 -10.84375 C 61.453125 -12.226562 60.988281 -13.332031 60.0625 -14.15625 C 59.132812 -15.070312 58.03125 -15.53125 56.75 -15.53125 L 12.375 -15.53125 L 12.375 -6.234375 L 56.75 -6.234375 C 58.03125 -6.234375 59.132812 -6.691406 60.0625 -7.609375 Z M 60.0625 -7.609375 "/></g></g></g><g fill="#f5f7ff" fill-opacity="1"><g transform="translate(366.90272, 166.12424)"><g><path d="M 12.3125 -47.828125 L 12.375 -35.375 L 6.15625 -35.375 L 6.15625 -47.828125 Z M 12.3125 -47.828125 "/></g></g></g><g fill="#f5f7ff" fill-opacity="1"><g transform="translate(385.435235, 166.12424)"><g><path d="M 7.765625 -20.6875 C 6.691406 -22.476562 6.15625 -24.398438 6.15625 -26.453125 C 6.15625 -29.378906 7.226562 -31.914062 9.375 -34.0625 C 11.476562 -36.21875 14.046875 -37.296875 17.078125 -37.296875 L 67.671875 -37.296875 L 67.671875 0 L 61.453125 0 L 61.453125 -15.53125 L 24.765625 -15.53125 C 21.429688 -15.53125 18.507812 -14.328125 16 -11.921875 C 13.582031 -9.410156 12.375 -6.488281 12.375 -3.15625 L 12.375 0 L 6.15625 0 L 6.15625 -3.15625 C 6.15625 -8.539062 8.128906 -13.078125 12.078125 -16.765625 C 10.273438 -17.691406 8.835938 -19 7.765625 -20.6875 Z M 13.765625 -23.15625 C 14.691406 -22.226562 15.796875 -21.765625 17.078125 -21.765625 L 61.453125 -21.765625 L 61.453125 -31.0625 L 17.078125 -31.0625 C 15.796875 -31.0625 14.691406 -30.601562 13.765625 -29.6875 C 12.835938 -28.757812 12.375 -27.679688 12.375 -26.453125 C 12.375 -25.117188 12.835938 -24.019531 13.765625 -23.15625 Z M 13.765625 -23.15625 "/></g></g></g><g fill="#f5f7ff" fill-opacity="1"><g transform="translate(459.257701, 166.12424)"><g><path d="M 64.453125 -18.453125 C 66.597656 -16.304688 67.671875 -13.769531 67.671875 -10.84375 C 67.671875 -7.96875 66.597656 -5.40625 64.453125 -3.15625 C 62.398438 -1.050781 59.859375 0 56.828125 0 L 6.15625 0 L 6.15625 -6.15625 L 56.75 -6.15625 C 58.03125 -6.15625 59.132812 -6.613281 60.0625 -7.53125 C 60.988281 -8.457031 61.453125 -9.5625 61.453125 -10.84375 C 61.453125 -12.125 60.988281 -13.226562 60.0625 -14.15625 C 59.09375 -15.019531 57.988281 -15.453125 56.75 -15.453125 L 6.15625 -15.453125 L 6.15625 -21.6875 L 56.828125 -21.6875 C 58.109375 -21.6875 59.210938 -22.148438 60.140625 -23.078125 C 61.015625 -23.941406 61.453125 -25.039062 61.453125 -26.375 C 61.453125 -27.65625 61.015625 -28.734375 60.140625 -29.609375 C 59.210938 -30.535156 58.109375 -31 56.828125 -31 L 6.15625 -31 L 6.15625 -37.21875 L 56.828125 -37.21875 C 59.804688 -37.21875 62.375 -36.144531 64.53125 -34 C 66.625 -31.894531 67.671875 -29.351562 67.671875 -26.375 C 67.671875 -23.351562 66.625 -20.789062 64.53125 -18.6875 L 64.375 -18.53125 Z M 64.453125 -18.453125 "/></g></g></g><g fill="#f5f7ff" fill-opacity="1"><g transform="translate(533.080144, 166.12424)"><g><path d="M 64.453125 -18.53125 C 66.597656 -16.476562 67.671875 -13.914062 67.671875 -10.84375 L 67.671875 0 L 61.453125 0 L 61.453125 -10.84375 C 61.453125 -12.226562 60.988281 -13.332031 60.0625 -14.15625 C 59.132812 -15.070312 58.03125 -15.53125 56.75 -15.53125 L 12.375 -15.53125 L 12.375 0 L 6.15625 0 L 6.15625 -37.296875 L 12.3125 -37.296875 L 12.375 -26.453125 L 12.375 -21.765625 L 50.765625 -21.765625 L 58.90625 -37.296875 L 65.828125 -37.296875 L 57.671875 -21.765625 C 60.335938 -21.554688 62.597656 -20.476562 64.453125 -18.53125 Z M 64.453125 -18.53125 "/></g></g></g><g fill="#f5f7ff" fill-opacity="1"><g transform="translate(606.902587, 166.12424)"><g><path d="M 61.53125 -37.296875 L 67.671875 -37.296875 L 67.671875 0 L 61.453125 0 L 61.53125 -30.296875 L 12.375 0 L 6.15625 0 L 6.15625 -37.296875 L 12.3125 -37.296875 L 12.375 -7 Z M 61.53125 -37.296875 "/></g></g></g></svg>